<svg xmlns="http://www.w3.org/2000/svg" viewBox="0 0 64 64" role="img" aria-label="CGMI icon">
  <defs>
    <linearGradient id="bg" x1="0" x2="1" y1="0" y2="1">
      <stop offset="0%" stop-color="#0f172a"/>
      <stop offset="100%" stop-color="#2563eb"/>
    </linearGradient>
    <linearGradient id="accent" x1="0" x2="1" y1="0" y2="1">
      <stop offset="0%" stop-color="#38bdf8"/>
      <stop offset="100%" stop-color="#22c55e"/>
    </linearGradient>
  </defs>
  <rect width="64" height="64" rx="16" fill="url(#bg)"/>
  <circle cx="32" cy="32" r="22" fill="#f8fafc" opacity="0.08"/>
  <path d="M20 20h11a8 8 0 0 1 0 16H20zm0 12h13a6 6 0 0 1 0 12H20z" fill="#f8fafc" opacity="0.92"/>
  <path d="M20 20h11a8 8 0 0 1 0 16H20z" fill="url(#accent)" opacity="0.92"/>
  <path d="M20 32h13a6 6 0 0 1 0 12H20z" fill="#93c5fd" opacity="0.78"/>
  <path d="M43 20h4v24h-4zM43 46h4v-4h-4z" fill="#e2e8f0" opacity="0.95"/>
  <path d="M35 20h4v12h-4zM35 36h4v10h-4z" fill="#bfdbfe" opacity="0.9"/>
</svg>
